<svg width="719" height="602" viewBox="0 0 719 602" fill="none" xmlns="http://www.w3.org/2000/svg">
<g clip-path="url(#clip0_513_227)">
<path d="M545.364 587.788L532.974 587.787L527.079 539.998L545.366 539.999L545.364 587.788Z" fill="#A0616A"/>
<path d="M545.033 583.739L531.813 578.369L531.423 578.209L524.123 583.739C520.117 583.738 516.266 585.285 513.372 588.055C510.479 590.826 508.767 594.607 508.593 598.609C508.573 598.829 508.573 599.059 508.573 599.289V599.799H548.523V583.739H545.033Z" fill="#2F2E41"/>
<path d="M514.693 572.548L500.44 571.87L500.019 571.849L494.969 579.488C491.19 580.817 488.07 583.554 486.26 587.128C484.45 590.702 484.09 594.837 485.255 598.67C485.309 598.884 485.385 599.101 485.461 599.318L485.631 599.799L523.316 586.539L517.985 571.39L514.693 572.548Z" fill="#2F2E41"/>
<path d="M633.316 36.5525H0.993073C0.727686 36.5466 0.475159 36.437 0.289551 36.2473C0.103942 36.0575 0 35.8026 0 35.5371C0 35.2717 0.103942 35.0168 0.289551 34.827C0.475159 34.6372 0.727686 34.5277 0.993073 34.5218H633.316C633.582 34.5277 633.834 34.6372 634.02 34.827C634.206 35.0168 634.31 35.2717 634.31 35.5371C634.31 35.8026 634.206 36.0575 634.02 36.2473C633.834 36.437 633.582 36.5466 633.316 36.5525V36.5525Z" fill="#CACACA"/>
<path d="M23.3482 22.3376C29.3821 22.3376 34.2735 17.3372 34.2735 11.1688C34.2735 5.00045 29.3821 0 23.3482 0C17.3143 0 12.4229 5.00045 12.4229 11.1688C12.4229 17.3372 17.3143 22.3376 23.3482 22.3376Z" fill="#3F3D56"/>
<path d="M61.0904 22.3376C67.1243 22.3376 72.0157 17.3372 72.0157 11.1688C72.0157 5.00045 67.1243 0 61.0904 0C55.0565 0 50.165 5.00045 50.165 11.1688C50.165 17.3372 55.0565 22.3376 61.0904 22.3376Z" fill="#3F3D56"/>
<path d="M98.8326 22.3376C104.866 22.3376 109.758 17.3372 109.758 11.1688C109.758 5.00045 104.866 0 98.8326 0C92.7987 0 87.9072 5.00045 87.9072 11.1688C87.9072 17.3372 92.7987 22.3376 98.8326 22.3376Z" fill="#3F3D56"/>
<path d="M610.7 2.76831H583.89C583.358 2.77886 582.852 2.99737 582.48 3.37692C582.108 3.75647 581.899 4.26679 581.899 4.79831C581.899 5.32983 582.108 5.84015 582.48 6.2197C582.852 6.59925 583.358 6.81776 583.89 6.82831H610.7C611.231 6.81776 611.737 6.59925 612.109 6.2197C612.481 5.84015 612.69 5.32983 612.69 4.79831C612.69 4.26679 612.481 3.75647 612.109 3.37692C611.737 2.99737 611.231 2.77886 610.7 2.76831V2.76831Z" fill="#3F3D56"/>
<path d="M610.7 10.3883H583.89C583.358 10.3989 582.852 10.6174 582.48 10.9969C582.108 11.3765 581.899 11.8868 581.899 12.4183C581.899 12.9498 582.108 13.4602 582.48 13.8397C582.852 14.2193 583.358 14.4378 583.89 14.4483H610.7C611.231 14.4378 611.737 14.2193 612.109 13.8397C612.481 13.4602 612.69 12.9498 612.69 12.4183C612.69 11.8868 612.481 11.3765 612.109 10.9969C611.737 10.6174 611.231 10.3989 610.7 10.3883V10.3883Z" fill="#3F3D56"/>
<path d="M610.7 17.9983H583.89C583.358 18.0088 582.852 18.2274 582.48 18.6069C582.108 18.9865 581.899 19.4968 581.899 20.0283C581.899 20.5598 582.108 21.0701 582.48 21.4497C582.852 21.8292 583.358 22.0477 583.89 22.0583H610.7C611.231 22.0477 611.737 21.8292 612.109 21.4497C612.481 21.0701 612.69 20.5598 612.69 20.0283C612.69 19.4968 612.481 18.9865 612.109 18.6069C611.737 18.2274 611.231 18.0088 610.7 17.9983V17.9983Z" fill="#3F3D56"/>
<path d="M600.688 70.836H24.7478C21.5587 70.8408 18.5016 72.1097 16.2465 74.3648C13.9915 76.6198 12.7225 79.6769 12.7178 82.866V84.806C12.7225 87.9951 13.9915 91.0522 16.2465 93.3072C18.5016 95.5623 21.5587 96.8312 24.7478 96.836H600.688C603.877 96.8312 606.934 95.5623 609.189 93.3072C611.444 91.0522 612.713 87.9951 612.718 84.806V82.866C612.713 79.6769 611.444 76.6198 609.189 74.3648C606.934 72.1097 603.877 70.8408 600.688 70.836V70.836Z" fill="#F0F0F0"/>
<path d="M94.2532 88.6362H39.4303C38.2036 88.6344 37.0279 88.1458 36.1611 87.2778C35.2944 86.4098 34.8076 85.2333 34.8076 84.0067C34.8076 82.7801 35.2944 81.6036 36.1611 80.7356C37.0279 79.8676 38.2036 79.379 39.4303 79.3772H94.2532C100.223 79.2939 100.283 88.7202 94.2532 88.6362Z" fill="white"/>
<path d="M258.253 88.6362H203.43C202.204 88.6344 201.028 88.1458 200.161 87.2778C199.294 86.4098 198.808 85.2333 198.808 84.0067C198.808 82.7801 199.294 81.6036 200.161 80.7356C201.028 79.8676 202.204 79.379 203.43 79.3772H258.253C264.223 79.2939 264.283 88.7202 258.253 88.6362Z" fill="white"/>
<path d="M422.253 88.6362H367.43C366.204 88.6344 365.028 88.1458 364.161 87.2778C363.294 86.4098 362.808 85.2333 362.808 84.0067C362.808 82.7801 363.294 81.6036 364.161 80.7356C365.028 79.8676 366.204 79.379 367.43 79.3772H422.253C428.223 79.2939 428.283 88.7202 422.253 88.6362Z" fill="white"/>
<path d="M577.753 89.1362H522.93C521.702 89.1362 520.525 88.6484 519.657 87.7802C518.789 86.912 518.301 85.7345 518.301 84.5067C518.301 83.2789 518.789 82.1014 519.657 81.2332C520.525 80.365 521.702 79.8772 522.93 79.8772H577.753C583.723 79.7939 583.783 89.2202 577.753 89.1362Z" fill="#6C63FF"/>
<path d="M492.218 70.8359H490.218V96.8359H492.218V70.8359Z" fill="white"/>
<path d="M285.263 455.648H50.2102C48.1158 455.646 46.1079 454.813 44.627 453.332C43.146 451.851 42.313 449.843 42.3105 447.749V413.323C42.313 411.229 43.146 409.221 44.627 407.74C46.1079 406.259 48.1158 405.426 50.2102 405.424H285.263C287.358 405.426 289.366 406.259 290.846 407.74C292.327 409.221 293.16 411.229 293.163 413.323V447.749C293.16 449.843 292.327 451.851 290.846 453.332C289.366 454.813 287.358 455.646 285.263 455.648V455.648Z" fill="#F0F0F0"/>
<path d="M262.424 450.32H55.5393C53.4449 450.318 51.437 449.484 49.9561 448.004C48.4751 446.523 47.6421 444.515 47.6396 442.42V418.656C47.6421 416.562 48.4751 414.554 49.9561 413.073C51.437 411.592 53.4449 410.759 55.5393 410.756H279.934C282.029 410.759 284.037 411.592 285.517 413.073C286.998 414.554 287.831 416.562 287.834 418.656V424.91C287.826 431.647 285.147 438.106 280.383 442.869C275.62 447.633 269.161 450.312 262.424 450.32V450.32Z" fill="white"/>
<path d="M191.062 428.087H96.5881C96.0478 428.087 95.5296 427.872 95.1475 427.49C94.7654 427.108 94.5508 426.59 94.5508 426.05C94.5508 425.509 94.7654 424.991 95.1475 424.609C95.5296 424.227 96.0478 424.013 96.5881 424.013H191.062C191.602 424.013 192.12 424.227 192.502 424.609C192.884 424.991 193.099 425.509 193.099 426.05C193.099 426.59 192.884 427.108 192.502 427.49C192.12 427.872 191.602 428.087 191.062 428.087V428.087Z" fill="#E6E6E6"/>
<path d="M238.885 436.42H96.5877C96.3198 436.42 96.0544 436.368 95.8067 436.266C95.559 436.164 95.3339 436.014 95.1442 435.825C94.9545 435.636 94.8041 435.411 94.7014 435.163C94.5987 434.916 94.5459 434.65 94.5459 434.383C94.5459 434.115 94.5987 433.849 94.7014 433.602C94.8041 433.354 94.9545 433.13 95.1442 432.94C95.3339 432.751 95.559 432.601 95.8067 432.499C96.0544 432.397 96.3198 432.345 96.5877 432.345H238.885C239.425 432.346 239.942 432.562 240.323 432.944C240.704 433.325 240.918 433.843 240.918 434.383C240.918 434.922 240.704 435.44 240.323 435.822C239.942 436.203 239.425 436.419 238.885 436.42V436.42Z" fill="#E6E6E6"/>
<path d="M300.278 366.036H32.2675C30.1289 366.034 28.0786 365.183 26.5664 363.671C25.0542 362.159 24.2036 360.108 24.2012 357.97V153.102C24.2036 150.964 25.0543 148.913 26.5665 147.401C28.0787 145.889 30.129 145.038 32.2675 145.036H300.278C302.416 145.038 304.466 145.889 305.979 147.401C307.491 148.913 308.342 150.964 308.344 153.102V357.97C308.342 360.108 307.491 362.159 305.979 363.671C304.466 365.183 302.416 366.034 300.278 366.036V366.036Z" fill="white"/>
<path d="M300.278 367.036H32.2686C29.8649 367.033 27.5604 366.077 25.8607 364.378C24.1611 362.678 23.205 360.373 23.2021 357.97V153.102C23.205 150.698 24.1611 148.394 25.8608 146.694C27.5605 144.995 29.8649 144.039 32.2686 144.036H300.278C302.682 144.039 304.986 144.995 306.686 146.694C308.386 148.394 309.342 150.698 309.345 153.102V357.97C309.342 360.373 308.386 362.678 306.686 364.378C304.986 366.077 302.682 367.033 300.278 367.036ZM32.2686 146.036C30.3951 146.038 28.5991 146.783 27.2743 148.108C25.9496 149.433 25.2043 151.229 25.2021 153.102V357.97C25.2042 359.843 25.9494 361.639 27.2742 362.964C28.5989 364.289 30.3951 365.034 32.2686 365.036H300.278C302.152 365.034 303.948 364.289 305.273 362.964C306.597 361.639 307.343 359.843 307.345 357.97V153.102C307.342 151.229 306.597 149.433 305.273 148.108C303.948 146.783 302.152 146.038 300.278 146.036L32.2686 146.036Z" fill="#F0F0F0"/>
<path d="M24.8203 327.036V357.97C24.8233 359.944 25.6088 361.837 27.0048 363.233C28.4008 364.629 30.2933 365.414 32.2675 365.417H300.278C302.252 365.414 304.145 364.629 305.541 363.233C306.937 361.837 307.722 359.944 307.725 357.97V327.036H24.8203Z" fill="#F0F0F0"/>
<path d="M27.3458 146.341L26.2676 148.025L307.186 327.878L308.264 326.194L27.3458 146.341Z" fill="#F0F0F0"/>
<path d="M307.98 146.341L27.0615 326.194L28.1397 327.878L309.058 148.025L307.98 146.341Z" fill="#F0F0F0"/>
<path d="M516.348 576.258L504.66 580.37L483.238 537.245L500.488 531.177L516.348 576.258Z" fill="#A0616A"/>
<path d="M549.742 381.73C561.077 381.29 547.036 471.62 547.036 471.62C547.036 471.62 551.143 550.925 550.272 555.087C549.402 559.249 550.162 570.473 550.162 570.473C547.942 566.431 525.03 569.482 525.03 569.482L521.913 489.106L506 424.706L483.938 467.874L505.083 534.135C505.083 534.135 513.647 542.059 512.736 545.19C511.826 548.322 489.395 555.383 485.273 555.543C481.152 555.703 483.013 550.471 482.813 545.319C482.613 540.166 463.217 492.414 456.395 476.166C449.573 459.919 454.877 437.009 458.359 420.362C461.841 403.714 480.162 372.473 480.162 372.473C502.904 346.823 538.407 382.169 549.742 381.73Z" fill="#2F2E41"/>
<path d="M411.605 308.731C412.226 309.918 413.099 310.953 414.164 311.766C415.228 312.578 416.458 313.147 417.766 313.432C419.074 313.718 420.429 313.713 421.735 313.419C423.041 313.124 424.267 312.547 425.325 311.727L452.584 329.511L452.501 312.598L426.629 298.303C425.134 296.616 423.072 295.535 420.834 295.266C418.596 294.997 416.337 295.559 414.485 296.844C412.633 298.13 411.317 300.05 410.786 302.241C410.255 304.432 410.547 306.741 411.605 308.731V308.731Z" fill="#A0616A"/>
<path d="M543.855 396.21C515.745 396.211 500.254 390.584 492.028 385.56C481.97 379.416 480.248 372.938 480.18 372.664L480.16 372.586L481.139 360.266L481.567 359.307C483.541 354.891 483.802 349.899 482.302 345.3L482.271 345.205L482.279 345.107L488.852 259.862L512.111 252.243L518.878 245.444L549.005 245.007L553.203 253.518L576.954 262.459L565.286 331.915L559.692 341.557L561.943 352.06L561.927 352.155L554.589 395.954L554.185 395.972C550.566 396.134 547.122 396.214 543.855 396.21Z" fill="#3F3D56"/>
<path d="M471.133 343.029L460.106 336.491L459.415 335.493C458.011 333.473 456.153 331.81 453.99 330.638C451.827 329.466 449.419 328.818 446.961 328.745L446.832 328.741L431.644 319.811L437.94 301.368L461.75 308.402L478.349 267.157C479.261 264.892 480.783 262.924 482.746 261.472C484.709 260.021 487.037 259.142 489.47 258.934C491.903 258.726 494.346 259.197 496.527 260.295C498.708 261.392 500.542 263.073 501.825 265.151C503.139 267.322 503.82 269.818 503.792 272.356V299.343L503.692 299.477L471.133 343.029Z" fill="#3F3D56"/>
<path d="M544.86 380.348C545.095 379.03 545.617 377.779 546.389 376.685C547.16 375.59 548.162 374.678 549.324 374.013C550.486 373.348 551.779 372.945 553.113 372.834C554.448 372.722 555.79 372.905 557.046 373.368L577.702 348.217L582.704 364.373L562.322 385.781C561.403 387.839 559.762 389.489 557.708 390.418C555.654 391.347 553.33 391.49 551.178 390.82C549.025 390.151 547.193 388.715 546.029 386.785C544.864 384.854 544.448 382.564 544.86 380.348V380.348Z" fill="#A0616A"/>
<path d="M575.745 377.169L562.028 363.452L570.76 342.177L583.414 324.899C569.93 318.334 559.808 302.784 552.474 289.911L552.392 289.766L554.218 275.462C554.645 272.117 555.985 268.954 558.091 266.319C559.923 264.029 562.276 262.21 564.955 261.015C567.633 259.82 570.559 259.283 573.487 259.451C576.415 259.618 579.261 260.484 581.786 261.976C584.31 263.469 586.441 265.544 588 268.028L612.592 322.697L612.315 323.11L592.535 356.829L587.136 360.33L575.745 377.169Z" fill="#3F3D56"/>
<path d="M555.573 216.333C554.669 222.924 551.185 228.887 545.886 232.912C540.588 236.936 533.909 238.693 527.316 237.795C520.723 236.898 514.756 233.421 510.726 228.127C506.696 222.833 504.932 216.155 505.822 209.562L505.871 209.205C506.911 202.7 510.467 196.864 515.771 192.956C521.075 189.049 527.703 187.383 534.224 188.318C540.746 189.253 546.638 192.715 550.631 197.955C554.623 203.196 556.395 209.796 555.565 216.332L555.573 216.333Z" fill="#A0616A"/>
<path d="M549.184 229.263C550.473 226.645 551.798 223.833 551.435 220.937C551.073 218.04 548.233 215.272 545.443 216.133C543.776 216.647 542.515 218.294 540.772 218.379C538.373 218.495 536.997 215.749 536.251 213.466L533.21 204.17C530.289 206.446 526.903 208.049 523.292 208.865C519.68 209.681 515.934 209.69 512.319 208.891C509.495 208.245 506.643 206.987 504.986 204.61C503.33 202.234 503.34 198.549 505.612 196.752C506.726 195.871 508.208 195.536 509.273 194.596C509.933 194.013 510.388 193.233 510.57 192.371C510.753 191.509 510.653 190.611 510.286 189.811C509.918 189.01 509.303 188.349 508.53 187.925C507.758 187.501 506.87 187.337 505.997 187.458L513.654 186.501L511.373 182.375C512.24 182.965 513.221 183.367 514.252 183.557C515.284 183.746 516.344 183.718 517.364 183.474C519.424 183.103 521.364 182.255 523.38 181.689C528.265 180.442 533.423 180.823 538.072 182.775C542.72 184.727 546.604 188.143 549.134 192.504C551.018 191.874 553.049 191.833 554.958 192.384C556.866 192.935 558.562 194.053 559.821 195.59C561.871 198.191 562.428 201.663 562.508 204.974C562.657 211.502 561.233 217.971 558.357 223.834C557.533 225.696 556.348 227.377 554.871 228.78C554.127 229.475 553.241 230 552.273 230.316C551.305 230.633 550.28 230.733 549.269 230.612" fill="#2F2E41"/>
<path d="M142.373 203.433C142.783 209.28 144.506 214.96 147.413 220.049C153.54 230.81 164.048 238.601 175.365 243.232C189.504 249.018 205.265 249.196 220.27 247.906C234.207 246.708 248.001 243.93 261.99 243.358C272.807 243.012 283.636 243.27 294.425 244.132C315.356 245.617 336.201 248.374 356.911 251.716C362.52 252.61 368.117 253.57 373.703 254.597C374.23 254.644 374.753 254.741 375.262 254.887C375.363 254.928 375.527 254.896 375.619 254.954C375.788 255.06 374.937 254.685 375.453 255.111C376.172 255.865 376.812 256.689 377.365 257.572L385.014 267.415C387.208 270.238 389.243 273.668 392.078 275.893C394.077 277.437 396.488 278.355 399.008 278.53C401.528 278.706 404.043 278.131 406.237 276.879C408.529 275.431 410.357 273.355 411.503 270.898C413.262 267.672 415.361 264.642 417.764 261.861C426.864 251.245 439.511 244.716 450.089 235.783C455.213 231.634 459.585 226.635 463.017 221.005C465.944 215.911 467.764 210.256 468.358 204.41C469.625 192.539 465.982 180.433 459.855 170.334C453.191 159.484 443.617 150.721 432.221 145.04C419.419 138.518 405.253 135.341 391.053 133.758C375.977 132.077 360.725 132.082 345.575 132.252C328.573 132.441 311.601 133.189 294.66 134.495C277.696 135.808 260.799 137.675 243.969 140.094C227.819 142.416 211.473 144.836 195.665 148.945C181.7 152.574 167.774 158.247 157.346 168.525C148.074 177.665 141.625 190.171 142.373 203.433Z" fill="#6C63FF"/>
<path d="M220.434 207.21C219.744 207.179 219.067 207.005 218.447 206.7C217.827 206.394 217.277 205.964 216.832 205.436C216.386 204.907 216.055 204.292 215.859 203.63C215.662 202.967 215.605 202.271 215.691 201.585L216.05 198.76C216.119 198.219 216.055 197.668 215.863 197.157C215.672 196.645 215.36 196.188 214.953 195.824L212.831 193.927C212.136 193.307 211.629 192.504 211.366 191.61C211.104 190.716 211.097 189.767 211.346 188.869C211.595 187.971 212.091 187.161 212.776 186.53C213.462 185.899 214.31 185.473 215.226 185.299L218.023 184.768C218.559 184.666 219.063 184.435 219.49 184.096C219.917 183.756 220.256 183.318 220.476 182.819L221.624 180.211C222 179.359 222.607 178.629 223.376 178.103C224.145 177.578 225.046 177.278 225.977 177.237C226.908 177.197 227.831 177.418 228.643 177.875C229.455 178.332 230.122 179.007 230.571 179.823L231.939 182.319C232.202 182.799 232.577 183.207 233.033 183.509C233.488 183.81 234.01 183.997 234.554 184.052L237.386 184.338C238.313 184.432 239.195 184.783 239.933 185.352C240.67 185.921 241.234 186.685 241.56 187.558C241.886 188.431 241.962 189.378 241.778 190.291C241.594 191.204 241.158 192.048 240.52 192.727L238.569 194.8C238.195 195.197 237.923 195.68 237.777 196.206C237.631 196.732 237.615 197.286 237.731 197.819L238.333 200.603C238.53 201.514 238.468 202.461 238.155 203.338C237.841 204.215 237.289 204.988 236.56 205.567C235.831 206.147 234.954 206.511 234.029 206.618C233.103 206.726 232.167 206.572 231.324 206.175L228.749 204.962C228.255 204.728 227.712 204.618 227.166 204.641C226.62 204.665 226.088 204.821 225.617 205.096L223.156 206.529C222.332 207.011 221.388 207.247 220.434 207.21V207.21Z" fill="white"/>
<path d="M260.529 206.045C259.258 205.987 258.057 205.45 257.165 204.544C256.627 203.973 256.225 203.287 255.99 202.538C255.756 201.789 255.694 200.997 255.811 200.221L256.141 197.629C256.211 197.077 256.146 196.516 255.951 195.995C255.756 195.474 255.438 195.008 255.023 194.637L253.055 192.878C252.474 192.383 252.011 191.764 251.7 191.067C251.389 190.37 251.237 189.613 251.255 188.85C251.298 187.72 251.724 186.638 252.463 185.781C253.201 184.924 254.209 184.344 255.32 184.135L258.085 183.609C258.632 183.506 259.145 183.27 259.581 182.924C260.016 182.578 260.361 182.131 260.585 181.621L261.615 179.281C261.984 178.393 262.59 177.624 263.367 177.058C264.145 176.493 265.063 176.153 266.022 176.075C266.961 176.022 267.896 176.237 268.718 176.694C269.54 177.151 270.215 177.833 270.665 178.659L272.018 181.126C272.286 181.614 272.668 182.03 273.133 182.338C273.597 182.645 274.129 182.835 274.683 182.891L277.308 183.156C278.069 183.216 278.808 183.444 279.469 183.826C280.131 184.207 280.699 184.731 281.133 185.36C281.761 186.3 282.052 187.425 281.958 188.552C281.864 189.678 281.39 190.74 280.614 191.562L278.687 193.612C278.306 194.016 278.029 194.508 277.88 195.044C277.731 195.579 277.715 196.143 277.832 196.686L278.388 199.257C278.566 199.999 278.577 200.772 278.421 201.518C278.264 202.265 277.943 202.968 277.482 203.576C276.785 204.469 275.805 205.098 274.702 205.359C273.6 205.62 272.442 205.497 271.419 205.011L268.87 203.81C268.367 203.573 267.814 203.462 267.259 203.486C266.704 203.51 266.163 203.669 265.683 203.948L263.25 205.365C262.427 205.847 261.482 206.083 260.529 206.045V206.045Z" fill="white"/>
<path d="M300.728 205.875C300.038 205.844 299.361 205.67 298.741 205.365C298.121 205.06 297.571 204.629 297.126 204.101C296.68 203.573 296.349 202.958 296.153 202.295C295.956 201.633 295.899 200.937 295.985 200.251L296.344 197.426C296.413 196.884 296.349 196.334 296.157 195.822C295.966 195.311 295.654 194.853 295.246 194.489L293.125 192.593C292.43 191.972 291.922 191.17 291.66 190.276C291.398 189.382 291.391 188.432 291.64 187.534C291.889 186.637 292.385 185.826 293.07 185.196C293.756 184.565 294.604 184.138 295.52 183.965L298.317 183.433C298.853 183.332 299.357 183.101 299.784 182.761C300.211 182.422 300.55 181.984 300.77 181.484L301.918 178.877C302.294 178.024 302.901 177.294 303.67 176.769C304.439 176.243 305.34 175.943 306.271 175.903C307.202 175.863 308.125 176.083 308.937 176.54C309.749 176.997 310.416 177.672 310.865 178.489L312.233 180.985C312.496 181.464 312.871 181.872 313.327 182.174C313.782 182.476 314.304 182.663 314.848 182.718L317.68 183.004C318.607 183.097 319.489 183.449 320.227 184.018C320.964 184.587 321.528 185.351 321.854 186.224C322.18 187.097 322.256 188.043 322.072 188.957C321.888 189.87 321.452 190.714 320.814 191.392L318.863 193.466C318.489 193.863 318.217 194.345 318.071 194.871C317.925 195.397 317.909 195.951 318.025 196.485L318.627 199.269C318.823 200.179 318.762 201.127 318.448 202.004C318.135 202.881 317.583 203.653 316.854 204.233C316.125 204.812 315.248 205.176 314.323 205.284C313.397 205.391 312.46 205.238 311.618 204.841L309.043 203.627C308.549 203.393 308.006 203.283 307.46 203.307C306.914 203.33 306.382 203.486 305.91 203.762L303.45 205.195C302.626 205.677 301.682 205.913 300.728 205.875V205.875Z" fill="white"/>
<path d="M340.27 204.977C339.58 204.946 338.903 204.772 338.283 204.467C337.663 204.161 337.113 203.731 336.668 203.203C336.222 202.674 335.891 202.06 335.695 201.397C335.498 200.734 335.441 200.038 335.527 199.353L335.886 196.528C335.955 195.986 335.891 195.436 335.699 194.924C335.508 194.412 335.196 193.955 334.788 193.591L332.667 191.695C331.972 191.074 331.464 190.271 331.202 189.377C330.94 188.483 330.933 187.534 331.182 186.636C331.431 185.738 331.927 184.928 332.612 184.297C333.298 183.666 334.146 183.24 335.062 183.066L337.859 182.535C338.395 182.433 338.899 182.203 339.326 181.863C339.753 181.524 340.092 181.085 340.312 180.586L341.46 177.979C341.836 177.126 342.443 176.396 343.212 175.87C343.981 175.345 344.882 175.045 345.813 175.005C346.744 174.964 347.667 175.185 348.479 175.642C349.291 176.099 349.958 176.774 350.407 177.591L351.775 180.087C352.038 180.566 352.413 180.974 352.869 181.276C353.324 181.578 353.846 181.764 354.39 181.819L357.222 182.105C358.149 182.199 359.031 182.55 359.769 183.119C360.506 183.688 361.07 184.453 361.396 185.325C361.722 186.198 361.798 187.145 361.614 188.058C361.43 188.972 360.994 189.815 360.356 190.494L358.405 192.567C358.031 192.965 357.759 193.447 357.613 193.973C357.467 194.499 357.451 195.053 357.567 195.586L358.169 198.371C358.365 199.281 358.304 200.228 357.99 201.106C357.677 201.983 357.125 202.755 356.396 203.334C355.666 203.914 354.79 204.278 353.864 204.386C352.939 204.493 352.002 204.339 351.16 203.942L348.585 202.729C348.091 202.495 347.548 202.385 347.002 202.408C346.456 202.432 345.924 202.588 345.452 202.863L342.992 204.296C342.168 204.778 341.224 205.015 340.27 204.977V204.977Z" fill="white"/>
<path d="M380.27 204.977C379.58 204.946 378.903 204.772 378.283 204.467C377.663 204.161 377.113 203.731 376.668 203.203C376.222 202.674 375.891 202.06 375.695 201.397C375.498 200.734 375.441 200.038 375.527 199.353L375.886 196.528C375.955 195.986 375.891 195.436 375.699 194.924C375.508 194.412 375.196 193.955 374.788 193.591L372.667 191.695C371.972 191.074 371.464 190.271 371.202 189.377C370.94 188.483 370.933 187.534 371.182 186.636C371.431 185.738 371.927 184.928 372.612 184.297C373.298 183.666 374.146 183.24 375.062 183.066L377.859 182.535C378.395 182.433 378.899 182.203 379.326 181.863C379.753 181.524 380.092 181.085 380.312 180.586L381.46 177.979C381.836 177.126 382.443 176.396 383.212 175.87C383.981 175.345 384.882 175.045 385.813 175.005C386.744 174.964 387.667 175.185 388.479 175.642C389.291 176.099 389.958 176.774 390.407 177.591L391.775 180.087C392.038 180.566 392.413 180.974 392.869 181.276C393.324 181.578 393.846 181.764 394.39 181.819L397.222 182.105C398.149 182.199 399.031 182.55 399.769 183.119C400.506 183.688 401.07 184.453 401.396 185.325C401.722 186.198 401.798 187.145 401.614 188.058C401.43 188.972 400.994 189.815 400.356 190.494L398.405 192.567C398.031 192.965 397.759 193.447 397.613 193.973C397.467 194.499 397.451 195.053 397.567 195.586L398.169 198.371C398.365 199.281 398.304 200.228 397.99 201.106C397.677 201.983 397.125 202.755 396.396 203.334C395.666 203.914 394.79 204.278 393.864 204.386C392.939 204.493 392.002 204.339 391.16 203.942L388.585 202.729C388.091 202.495 387.548 202.385 387.002 202.408C386.456 202.432 385.924 202.588 385.452 202.863L382.992 204.296C382.168 204.778 381.224 205.015 380.27 204.977V204.977Z" fill="white"/>
<path d="M628.041 537.369L629.185 511.65C641.109 505.276 654.409 501.909 667.93 501.842C649.321 517.056 651.647 546.383 639.031 566.842C635.047 573.193 629.685 578.566 623.343 582.562C617 586.559 609.84 589.078 602.391 589.931L586.819 599.465C584.682 587.553 585.154 575.319 588.2 563.607C591.247 551.894 596.796 540.982 604.466 531.62C608.821 526.411 613.815 521.771 619.329 517.81C623.059 527.644 628.041 537.369 628.041 537.369Z" fill="#F2F2F2"/>
<path d="M717.319 601.718H299.937C299.621 601.718 299.318 601.593 299.095 601.37C298.872 601.146 298.746 600.843 298.746 600.528C298.746 600.212 298.872 599.909 299.095 599.686C299.318 599.462 299.621 599.337 299.937 599.337H717.319C717.635 599.337 717.937 599.462 718.161 599.686C718.384 599.909 718.509 600.212 718.509 600.528C718.509 600.843 718.384 601.146 718.161 601.37C717.937 601.593 717.635 601.718 717.319 601.718V601.718Z" fill="#CACACA"/>
</g>
<defs>
<clipPath id="clip0_513_227">
<rect width="718.509" height="601.718" fill="white"/>
</clipPath>
</defs>
</svg>
