<svg width="753" height="424" viewBox="0 0 753 424" fill="none" xmlns="http://www.w3.org/2000/svg">
<g clip-path="url(#clip0_513_226)">
<path d="M286.607 138.058C284.56 138.05 282.568 137.39 280.92 136.175L267.215 126.217C266.077 125.389 264.705 124.943 263.297 124.943C261.89 124.943 260.518 125.389 259.38 126.217L245.674 136.175C244.021 137.376 242.031 138.023 239.988 138.023C237.945 138.023 235.954 137.376 234.301 136.175C232.648 134.975 231.418 133.281 230.786 131.338C230.155 129.395 230.155 127.302 230.786 125.359L236.02 109.247C236.458 107.909 236.459 106.466 236.024 105.126C235.589 103.787 234.74 102.621 233.6 101.795L219.894 91.8372C218.241 90.6361 217.011 88.9427 216.38 86.9995C215.748 85.0563 215.748 82.9632 216.38 81.02C217.011 79.0769 218.242 77.3835 219.895 76.1826C221.548 74.9816 223.538 74.3348 225.581 74.3347H242.522C243.93 74.3373 245.303 73.8928 246.442 73.0652C247.581 72.2377 248.428 71.0699 248.86 69.7301L254.096 53.6184C254.727 51.675 255.957 49.9813 257.61 48.7801C259.263 47.5789 261.254 46.932 263.297 46.932C265.341 46.932 267.332 47.5789 268.985 48.7801C270.638 49.9813 271.868 51.675 272.499 53.6184L277.735 69.7301C278.167 71.0699 279.014 72.2377 280.153 73.0652C281.292 73.8927 282.665 74.3373 284.073 74.3347H301.013C303.057 74.3348 305.047 74.9816 306.7 76.1826C308.353 77.3835 309.583 79.0769 310.215 81.02C310.846 82.9632 310.846 85.0563 310.215 86.9995C309.584 88.9427 308.354 90.6361 306.701 91.8372L292.995 101.795C291.854 102.621 291.005 103.787 290.57 105.126C290.135 106.466 290.137 107.909 290.574 109.247L295.809 125.359C296.463 127.3 296.475 129.4 295.842 131.349C295.209 133.297 293.965 134.989 292.294 136.175C290.647 137.39 288.655 138.05 286.607 138.058V138.058Z" fill="#6C63FF"/>
<path d="M412.701 139.126C410.653 139.118 408.662 138.458 407.014 137.243L393.308 127.285C392.17 126.457 390.799 126.011 389.391 126.011C387.983 126.011 386.612 126.457 385.474 127.285L371.768 137.243C370.115 138.444 368.125 139.091 366.081 139.091C364.038 139.091 362.048 138.444 360.395 137.243C358.742 136.043 357.511 134.349 356.88 132.406C356.248 130.463 356.248 128.37 356.88 126.427L362.114 110.315C362.552 108.977 362.553 107.534 362.118 106.194C361.683 104.855 360.834 103.689 359.693 102.863L345.988 92.9052C344.335 91.7041 343.105 90.0107 342.473 88.0675C341.842 86.1243 341.842 84.0312 342.474 82.088C343.105 80.1449 344.335 78.4515 345.988 77.2506C347.641 76.0496 349.632 75.4028 351.675 75.4027H368.616C370.024 75.4053 371.396 74.9608 372.535 74.1333C373.674 73.3057 374.521 72.1379 374.954 70.7981L380.189 54.6864C380.821 52.743 382.051 51.0493 383.704 49.8481C385.357 48.6469 387.348 48 389.391 48C391.435 48 393.425 48.6469 395.079 49.8481C396.732 51.0493 397.962 52.743 398.593 54.6864L403.828 70.7981C404.261 72.1379 405.108 73.3057 406.247 74.1332C407.386 74.9608 408.758 75.4053 410.166 75.4027H427.107C429.15 75.4028 431.141 76.0496 432.794 77.2506C434.447 78.4515 435.677 80.1449 436.309 82.088C436.94 84.0312 436.94 86.1243 436.309 88.0675C435.678 90.0107 434.447 91.7041 432.794 92.9052L419.089 102.863C417.948 103.689 417.099 104.855 416.664 106.194C416.229 107.534 416.23 108.977 416.668 110.315L421.903 126.427C422.557 128.368 422.569 130.468 421.936 132.417C421.302 134.365 420.059 136.057 418.388 137.243C416.74 138.458 414.748 139.118 412.701 139.126V139.126Z" fill="#6C63FF"/>
<path d="M535.701 250.126C533.653 250.118 531.662 249.458 530.014 248.243L516.308 238.285C515.17 237.457 513.799 237.011 512.391 237.011C510.983 237.011 509.612 237.457 508.474 238.285L494.768 248.243C493.115 249.444 491.125 250.091 489.081 250.091C487.038 250.091 485.048 249.444 483.395 248.243C481.742 247.043 480.511 245.349 479.88 243.406C479.248 241.463 479.248 239.37 479.88 237.427L485.114 221.315C485.552 219.977 485.553 218.534 485.118 217.194C484.683 215.855 483.834 214.689 482.693 213.863L468.988 203.905C467.335 202.704 466.105 201.011 465.473 199.068C464.842 197.124 464.842 195.031 465.474 193.088C466.105 191.145 467.335 189.452 468.988 188.251C470.641 187.05 472.632 186.403 474.675 186.403H491.616C493.024 186.405 494.396 185.961 495.535 185.133C496.674 184.306 497.521 183.138 497.954 181.798L503.189 165.686C503.821 163.743 505.051 162.049 506.704 160.848C508.357 159.647 510.348 159 512.391 159C514.435 159 516.425 159.647 518.079 160.848C519.732 162.049 520.962 163.743 521.593 165.686L526.828 181.798C527.261 183.138 528.108 184.306 529.247 185.133C530.386 185.961 531.758 186.405 533.166 186.403H550.107C552.15 186.403 554.141 187.05 555.794 188.251C557.447 189.452 558.677 191.145 559.309 193.088C559.94 195.031 559.94 197.124 559.309 199.068C558.678 201.011 557.447 202.704 555.794 203.905L542.089 213.863C540.948 214.689 540.099 215.855 539.664 217.194C539.229 218.534 539.23 219.977 539.668 221.315L544.903 237.427C545.557 239.368 545.569 241.468 544.936 243.417C544.302 245.365 543.059 247.057 541.388 248.243C539.74 249.458 537.748 250.118 535.701 250.126V250.126Z" fill="#6C63FF"/>
<path d="M635.53 163.327L601.859 192.272L549.088 237.621L541.955 243.753C541.303 244.309 540.767 244.989 540.379 245.754C539.991 246.518 539.759 247.353 539.697 248.208C539.604 249.449 539.867 250.691 540.455 251.789C540.678 252.203 540.946 252.591 541.254 252.947L545.08 257.402L550.904 264.177C551.012 264.297 551.113 264.409 551.228 264.523C552.391 265.688 553.952 266.37 555.597 266.433C557.242 266.497 558.85 265.936 560.1 264.865L619.939 213.448L653.681 184.447C654.989 183.317 655.796 181.715 655.925 179.991C656.053 178.267 655.494 176.563 654.368 175.251L652.332 172.884L644.724 164.028C644.167 163.377 643.487 162.843 642.723 162.456C641.959 162.068 641.126 161.835 640.272 161.77C639.418 161.705 638.56 161.809 637.746 162.076C636.932 162.343 636.179 162.768 635.53 163.327V163.327Z" fill="#6C63FF"/>
<path d="M661.19 138.974C690.837 138.974 714.871 114.94 714.871 85.293C714.871 55.6459 690.837 31.6121 661.19 31.6121C631.543 31.6121 607.509 55.6459 607.509 85.293C607.509 114.94 631.543 138.974 661.19 138.974Z" fill="#6C63FF"/>
<path d="M665.135 293.753V417.135C665.136 418.864 665.824 420.521 667.046 421.743C668.268 422.966 669.926 423.653 671.654 423.655H686.459C688.187 423.653 689.845 422.966 691.067 421.743C692.289 420.521 692.977 418.864 692.978 417.135V293.753C692.977 292.025 692.289 290.367 691.067 289.145C689.845 287.923 688.187 287.235 686.459 287.234H671.654C669.926 287.235 668.268 287.923 667.046 289.145C665.824 290.367 665.136 292.025 665.135 293.753Z" fill="#2F2E41"/>
<path d="M633.851 293.753V417.135C633.851 417.991 634.019 418.839 634.347 419.63C634.674 420.421 635.155 421.14 635.76 421.745C636.365 422.351 637.084 422.831 637.875 423.159C638.666 423.486 639.514 423.655 640.37 423.655H655.175C656.903 423.653 658.561 422.966 659.783 421.743C661.005 420.521 661.693 418.864 661.694 417.135V293.753C661.693 292.025 661.005 290.367 659.783 289.145C658.561 287.923 656.903 287.235 655.175 287.234H640.37C639.514 287.234 638.666 287.402 637.875 287.73C637.084 288.058 636.365 288.538 635.76 289.143C635.155 289.749 634.674 290.467 634.347 291.258C634.019 292.049 633.851 292.897 633.851 293.753V293.753Z" fill="#2F2E41"/>
<path d="M639.861 310.656C634.29 310.651 628.792 309.391 623.775 306.971C618.758 304.55 614.35 301.031 610.879 296.674C607.407 292.318 604.962 287.235 603.723 281.804C602.484 276.373 602.484 270.733 603.723 265.302L620.47 191.89C620.481 184.297 622.585 176.854 626.55 170.379C630.516 163.903 636.189 158.646 642.947 155.184C649.705 151.722 657.287 150.19 664.859 150.756C672.431 151.322 679.7 153.963 685.869 158.391C691.201 162.219 695.547 167.26 698.548 173.097C701.549 178.935 703.12 185.403 703.13 191.967C703.153 192.63 705.488 260.901 706.467 292.45C706.534 294.609 706.173 296.759 705.406 298.778C704.639 300.796 703.481 302.644 701.998 304.213C700.515 305.783 698.736 307.044 696.764 307.925C694.792 308.805 692.665 309.286 690.507 309.342L641.056 310.637C640.657 310.649 640.258 310.656 639.861 310.656Z" fill="#2F2E41"/>
<path d="M615.858 109.023L615.914 107.017C612.182 106.913 608.892 106.679 606.419 104.873C605.719 104.331 605.142 103.646 604.73 102.862C604.318 102.078 604.08 101.215 604.031 100.331C603.987 99.7904 604.069 99.2474 604.27 98.7439C604.47 98.2403 604.784 97.7898 605.187 97.4274C606.828 96.0414 609.469 96.49 611.394 97.3725L613.054 98.1336L609.871 74.8731L607.883 75.1454L610.591 94.9316C607.975 94.1627 605.552 94.4937 603.892 95.8954C603.255 96.4518 602.755 97.148 602.431 97.9296C602.108 98.7113 601.969 99.5571 602.026 100.401C602.085 101.589 602.403 102.75 602.957 103.802C603.511 104.855 604.289 105.773 605.236 106.493C608.413 108.814 612.541 108.93 615.858 109.023Z" fill="#2F2E41"/>
<path d="M632.157 76.8517H621.353V78.8577H632.157V76.8517Z" fill="#2F2E41"/>
<path d="M675.215 173.351L677.061 217.714L679.939 287.234L680.331 296.632C680.362 297.489 680.564 298.331 680.924 299.109C681.283 299.888 681.794 300.587 682.427 301.166C683.344 302.008 684.481 302.571 685.707 302.791C686.17 302.872 686.641 302.902 687.111 302.881L692.979 302.64L701.905 302.269C702.066 302.259 702.216 302.249 702.377 302.229C704.012 302.038 705.515 301.236 706.584 299.985C707.654 298.733 708.211 297.124 708.144 295.479L704.885 216.651L703.039 172.197C702.964 170.47 702.206 168.844 700.933 167.674C699.661 166.505 697.976 165.888 696.249 165.958L693.129 166.089L681.464 166.57C680.608 166.604 679.767 166.806 678.99 167.166C678.212 167.525 677.513 168.034 676.933 168.664C676.352 169.294 675.902 170.032 675.607 170.836C675.312 171.64 675.179 172.495 675.215 173.351V173.351Z" fill="#6C63FF"/>
<path d="M670.712 177.102V211.205C670.713 212.903 671.377 214.534 672.563 215.75C673.749 216.966 675.363 217.671 677.061 217.714C677.117 217.723 677.174 217.726 677.232 217.724H701.304C701.691 217.723 702.077 217.686 702.457 217.614C703.324 217.463 704.15 217.135 704.885 216.651C705.786 216.056 706.526 215.247 707.038 214.297C707.551 213.347 707.821 212.284 707.824 211.205V177.102C707.818 172.182 705.861 167.466 702.382 163.988C698.904 160.509 694.187 158.552 689.268 158.546C687.994 158.543 686.723 158.674 685.476 158.937C681.306 159.813 677.563 162.096 674.875 165.403C672.187 168.71 670.717 172.84 670.712 177.102V177.102Z" fill="#2F2E41"/>
<path d="M600.38 191.335C600.628 192.145 601.034 192.898 601.573 193.552L616.82 212.178C617.092 212.522 617.405 212.832 617.752 213.1C618.917 214.05 620.374 214.567 621.876 214.565C623.379 214.564 624.835 214.042 625.997 213.09L652.387 191.495C654.272 189.952 655.835 188.052 656.986 185.904C658.138 183.756 658.855 181.402 659.096 178.977C659.338 176.553 659.1 174.104 658.395 171.771C657.69 169.438 656.533 167.267 654.989 165.381C653.445 163.496 651.545 161.933 649.398 160.782C647.25 159.63 644.896 158.913 642.471 158.672C640.046 158.43 637.598 158.668 635.265 159.373C632.932 160.078 630.761 161.235 628.875 162.779L602.486 184.374C601.487 185.197 600.754 186.297 600.379 187.535C600.004 188.774 600.004 190.096 600.38 191.335V191.335Z" fill="#2F2E41"/>
<path d="M652.971 53.729C644.028 57.4522 634.397 61.5713 624.486 60.43C616.367 59.495 608.565 54.748 606.695 46.3594C604.908 38.3436 608.602 29.9817 614.49 24.6123C621.15 18.5386 630.344 15.6001 639.12 14.3607C644.421 13.6119 650.312 13.5635 655.2 16.0451C659.113 18.0316 662.63 21.6232 663.235 26.1381L666.995 25.1198C664.338 20.6153 665.609 15.1559 668.549 11.1096C672.085 6.24459 678.019 4.21853 683.847 4.04929C695.701 3.70509 707.829 9.20568 717.374 15.8634C726.775 22.4441 734.513 31.1244 739.975 41.2161C746.1 52.5519 749.473 66.1071 747.413 78.97C745.316 92.0617 736.847 104.485 723.738 108.425C721.257 109.171 722.314 113.067 724.811 112.317C737.325 108.555 746.569 97.7183 750.119 85.3606C754.199 71.1598 751.393 55.6074 745.134 42.4769C739.585 30.9989 731.303 21.0589 721.015 13.5298C710.731 5.94913 697.402 -0.14878 684.411 0.00266972C676.947 0.0896697 669.718 2.75005 665.199 8.89075C661.342 14.1335 660.104 21.382 663.511 27.1564C664.446 28.7416 667.55 28.2217 667.27 26.1381C665.854 15.5729 655.63 10.1416 645.784 9.9071C640.227 9.88583 634.699 10.7033 629.386 12.3319C624.47 13.6785 619.804 15.8111 615.569 18.6472C607.618 24.1514 602.025 32.941 602.249 42.8391C602.472 52.7137 609.124 60.2987 618.344 63.2191C630.512 67.0731 642.851 62.2799 654.043 57.62C654.549 57.4625 654.976 57.1184 655.238 56.6575C655.5 56.1966 655.576 55.6534 655.452 55.1381C655.308 54.6237 654.966 54.1872 654.501 53.9233C654.036 53.6595 653.486 53.5896 652.97 53.7289L652.971 53.729Z" fill="#2F2E41"/>
<path d="M176.701 137.126C174.653 137.118 172.661 136.458 171.013 135.243L157.308 125.285C156.171 124.455 154.799 124.007 153.391 124.007C151.983 124.007 150.611 124.455 149.474 125.285L135.768 135.243C134.115 136.444 132.125 137.091 130.081 137.091C128.038 137.091 126.048 136.444 124.395 135.243C122.742 134.042 121.511 132.349 120.88 130.406C120.248 128.463 120.248 126.37 120.879 124.427L126.114 108.315C126.552 106.977 126.553 105.534 126.118 104.194C125.683 102.855 124.834 101.689 123.693 100.863L109.988 90.9052C108.335 89.7041 107.105 88.0107 106.473 86.0675C105.842 84.1243 105.842 82.0312 106.474 80.088C107.105 78.1449 108.335 76.4515 109.988 75.2506C111.641 74.0496 113.632 73.4028 115.675 73.4027H132.616C134.024 73.4053 135.396 72.9608 136.535 72.1332C137.674 71.3057 138.521 70.1379 138.954 68.7981L144.189 52.6864C144.82 50.743 146.051 49.0493 147.704 47.8481C149.357 46.6469 151.348 46 153.391 46C155.434 46 157.425 46.6469 159.078 47.8481C160.732 49.0493 161.962 50.743 162.593 52.6864L167.828 68.7981C168.26 70.1379 169.107 71.3057 170.247 72.1333C171.386 72.9608 172.758 73.4053 174.166 73.4027H191.107C193.15 73.4028 195.141 74.0496 196.794 75.2506C198.447 76.4515 199.677 78.1449 200.309 80.088C200.94 82.0312 200.94 84.1243 200.309 86.0675C199.678 88.0107 198.447 89.7041 196.795 90.9052L183.089 100.863C181.948 101.688 181.099 102.855 180.663 104.194C180.228 105.534 180.23 106.977 180.667 108.315L185.903 124.427C186.557 126.368 186.569 128.468 185.935 130.417C185.302 132.365 184.058 134.057 182.387 135.243C180.74 136.458 178.748 137.118 176.701 137.126V137.126Z" fill="#6C63FF"/>
</g>
<path d="M70.7008 137.126C68.6532 137.118 66.6613 136.458 65.0134 135.243L51.3077 125.285C50.1705 124.455 48.7988 124.007 47.3907 124.007C45.9826 124.007 44.611 124.455 43.4738 125.285L29.7681 135.243C28.1151 136.444 26.1245 137.091 24.0814 137.091C22.0383 137.091 20.0476 136.444 18.3946 135.243C16.7416 134.042 15.5111 132.349 14.8795 130.406C14.248 128.463 14.2478 126.37 14.8788 124.427L20.1141 108.315C20.5518 106.977 20.5532 105.534 20.1182 104.194C19.6832 102.855 18.8341 101.689 17.6935 100.863L3.98773 90.9052C2.33487 89.7041 1.10466 88.0107 0.473386 86.0675C-0.157884 84.1243 -0.157789 82.0312 0.473631 80.088C1.10505 78.1449 2.33539 76.4515 3.98834 75.2506C5.64129 74.0496 7.63198 73.4028 9.67514 73.4027H26.616C28.0239 73.4053 29.3963 72.9608 30.5353 72.1332C31.6744 71.3057 32.5213 70.1379 32.9539 68.7981L38.1893 52.6864C38.8205 50.743 40.0507 49.0493 41.7038 47.8481C43.3568 46.6469 45.3477 46 47.3911 46C49.4345 46 51.4254 46.6469 53.0785 47.8481C54.7315 49.0493 55.9618 50.743 56.593 52.6864L61.8276 68.7981C62.2604 70.1379 63.1075 71.3057 64.2466 72.1333C65.3858 72.9608 66.7582 73.4053 68.1662 73.4027H85.1071C87.1503 73.4028 89.141 74.0496 90.7939 75.2506C92.4469 76.4515 93.6772 78.1449 94.3086 80.088C94.94 82.0312 94.9401 84.1243 94.3089 86.0675C93.6776 88.0107 92.4474 89.7041 90.7945 90.9052L77.0888 100.863C75.9479 101.688 75.0987 102.855 74.6635 104.194C74.2283 105.534 74.2297 106.977 74.6674 108.315L79.9027 124.427C80.5571 126.368 80.5686 128.468 79.9354 130.417C79.3022 132.365 78.0581 134.057 76.3875 135.243C74.7399 136.458 72.7482 137.118 70.7008 137.126V137.126Z" fill="#6C63FF"/>
<defs>
<clipPath id="clip0_513_226">
<rect width="675.033" height="423.655" fill="white" transform="translate(77)"/>
</clipPath>
</defs>
</svg>
